<svg width="463" height="1100" viewBox="0 0 463 1100" fill="none" xmlns="http://www.w3.org/2000/svg">
<path d="M270.575 1023.13C216.607 993.05 183.01 951.975 170.717 901.052C161.581 863.245 164.211 820.699 178.513 774.6C189.113 740.611 205.006 708.506 225.608 679.468C334.902 524.766 344.766 423.961 333.797 366.637C321.768 303.783 282.689 277.679 282.296 277.424L283.974 274.83C284.377 275.093 324.487 301.803 336.804 365.932C343.904 402.903 340.565 445.058 326.875 491.23C309.837 548.692 276.614 612.626 228.128 681.257C207.715 710.029 191.965 741.84 181.46 775.517C158.006 851.127 154.689 954.994 272.078 1020.43L270.575 1023.13Z" fill="#2F2E41"/>
<path d="M172.009 736.675C129.464 712.958 130.648 675.372 139.133 648.017C142.896 635.952 148.538 624.555 155.851 614.248C194.139 560.051 197.6 524.842 193.761 504.851C189.59 483.142 176.214 474.229 176.079 474.141L177.757 471.548C178.352 471.934 192.376 481.277 196.793 504.269C202.543 534.204 189.616 571.809 158.372 616.034C151.248 626.076 145.753 637.178 142.089 648.932C133.942 675.195 132.783 711.266 173.516 733.973L172.009 736.675Z" fill="#2F2E41"/>
<path d="M363.428 393.189L361.922 390.485C402.655 367.777 401.495 331.705 393.349 305.444C389.683 293.69 384.186 282.586 377.06 272.544C345.816 228.319 332.889 190.715 338.639 160.779C343.054 137.789 357.079 128.444 357.674 128.058L359.363 130.652C359.227 130.741 345.782 139.771 341.65 161.484C337.854 181.465 341.35 216.641 379.583 270.758C386.895 281.066 392.536 292.462 396.298 304.527C404.792 331.882 405.976 369.473 363.428 393.189Z" fill="#2F2E41"/>
<path d="M454.269 239.232C450.951 244.364 446.652 248.791 441.618 252.257C436.585 255.724 430.916 258.163 424.938 259.433C418.96 260.704 412.789 260.781 406.781 259.661C400.773 258.541 395.045 256.245 389.926 252.905C384.807 249.566 380.398 245.248 376.952 240.201C373.506 235.153 371.091 229.474 369.845 223.491C368.599 217.507 368.548 211.337 369.693 205.333C370.837 199.33 373.157 193.611 376.517 188.506C390.524 167.036 461.045 143.893 461.045 143.893C461.045 143.893 468.276 217.761 454.269 239.232Z" fill="#737C4C"/>
<path d="M437.25 95.3385C433.931 100.471 429.632 104.898 424.599 108.364C419.565 111.831 413.897 114.27 407.918 115.54C401.94 116.811 395.77 116.888 389.761 115.768C383.753 114.648 378.025 112.352 372.906 109.012C367.788 105.673 363.379 101.355 359.933 96.3076C356.487 91.2599 354.072 85.5814 352.826 79.5979C351.58 73.6144 351.528 67.4438 352.673 61.4402C353.818 55.4366 356.137 49.7182 359.498 44.6132C373.504 23.1429 444.026 0 444.026 0C444.026 0 451.256 73.8681 437.25 95.3385Z" fill="#737C4C"/>
<path d="M362.434 622.51C351.545 622.525 340.976 618.835 332.462 612.046C323.949 605.257 317.999 595.773 315.591 585.154C313.183 574.535 314.46 563.412 319.212 553.615C323.963 543.818 331.907 535.929 341.738 531.246C365.1 520.112 435.176 536.41 438.15 537.11L440.03 537.552L439.189 539.289C437.859 542.038 406.359 606.719 382.995 617.851C376.575 620.919 369.55 622.511 362.434 622.51ZM366.337 530.464C356.827 530.464 348.504 531.447 343.061 534.041C332.318 539.159 324.047 548.335 320.069 559.551C316.091 570.767 316.732 583.104 321.85 593.848C326.968 604.592 336.145 612.862 347.361 616.84C358.577 620.818 370.914 620.178 381.658 615.059C401.981 605.375 430.256 550.264 435.534 539.692C427.084 537.814 392.321 530.464 366.337 530.464Z" fill="#2F2E41"/>
<path d="M267.844 196.644C272.384 200.741 276.069 205.695 278.689 211.222C281.308 216.748 282.81 222.738 283.108 228.846C283.405 234.955 282.492 241.062 280.422 246.816C278.352 252.571 275.165 257.86 271.044 262.379C266.924 266.898 261.95 270.558 256.411 273.15C250.871 275.741 244.874 277.212 238.764 277.478C232.654 277.744 226.552 276.8 220.808 274.7C215.064 272.6 209.791 269.386 205.293 265.243C186.349 247.969 174.828 174.647 174.828 174.647C174.828 174.647 248.9 179.37 267.844 196.644Z" fill="#737C4C"/>
<path d="M159.537 391.598C164.077 395.695 167.763 400.649 170.382 406.176C173.002 411.702 174.504 417.692 174.801 423.8C175.098 429.909 174.186 436.016 172.116 441.77C170.045 447.525 166.858 452.814 162.738 457.333C158.617 461.852 153.644 465.513 148.104 468.104C142.564 470.695 136.567 472.166 130.457 472.432C124.347 472.698 118.245 471.754 112.501 469.654C106.757 467.554 101.485 464.34 96.9867 460.197C78.0428 442.923 66.5217 369.602 66.5217 369.602C66.5217 369.602 140.593 374.324 159.537 391.598Z" fill="#737C4C"/>
<path d="M280.938 418.938C265.446 418.938 235.816 404.268 234.46 403.589L232.732 402.727L233.95 401.236C234.99 399.955 259.58 369.829 273.411 366.833C276.81 366.097 280.32 366.038 283.742 366.659C287.163 367.28 290.429 368.568 293.353 370.451C296.276 372.334 298.8 374.775 300.781 377.633C302.761 380.492 304.159 383.712 304.895 387.111C305.631 390.51 305.69 394.02 305.069 397.442C304.448 400.863 303.159 404.129 301.276 407.053C299.394 409.976 296.953 412.5 294.095 414.481C291.236 416.461 288.016 417.859 284.617 418.595C283.406 418.84 282.173 418.957 280.938 418.944V418.938ZM237.604 401.674C244.9 405.157 272.844 417.974 283.962 415.565C286.987 414.939 289.858 413.72 292.409 411.979C294.96 410.238 297.141 408.008 298.825 405.419C300.51 402.83 301.665 399.933 302.224 396.896C302.783 393.858 302.734 390.74 302.081 387.721C301.428 384.702 300.183 381.842 298.419 379.307C296.655 376.772 294.406 374.611 291.802 372.95C289.198 371.289 286.291 370.16 283.248 369.628C280.205 369.097 277.088 369.173 274.075 369.854C262.945 372.261 242.806 395.486 237.604 401.674Z" fill="#2F2E41"/>
<path d="M115.619 1034.61C117.667 1031 120.407 1027.82 123.683 1025.26C126.959 1022.7 130.708 1020.81 134.714 1019.7C138.72 1018.59 142.906 1018.28 147.032 1018.78C151.158 1019.29 155.144 1020.61 158.762 1022.65C162.381 1024.7 165.56 1027.44 168.119 1030.72C170.678 1033.99 172.567 1037.74 173.678 1041.75C174.788 1045.75 175.099 1049.94 174.592 1054.07C174.085 1058.19 172.77 1062.18 170.723 1065.8C162.112 1081.01 115.107 1099.8 115.107 1099.8C115.107 1099.8 107.005 1049.83 115.619 1034.61Z" fill="#737C4C"/>
<path d="M33.7895 782.972C23.1104 782.801 12.4564 781.883 1.90558 780.224L0 779.914L0.717872 778.122C1.33131 776.59 15.8692 740.522 28.1883 733.559C34.3017 730.103 41.5378 729.217 48.3046 731.096C55.0715 732.974 60.8149 737.464 64.2712 743.578C67.7276 749.691 68.6139 756.927 66.7351 763.694C64.8563 770.461 60.3664 776.204 54.253 779.661C49.8265 782.161 42.0327 782.972 33.7895 782.972ZM4.32951 777.46C12.3303 778.62 42.8177 782.564 52.7222 776.966C55.4176 775.467 57.7898 773.448 59.7019 771.028C61.6141 768.607 63.0286 765.833 63.864 762.863C64.6993 759.894 64.939 756.789 64.5692 753.726C64.1994 750.664 63.2275 747.705 61.7094 745.02C60.1913 742.335 58.1569 739.976 55.7235 738.081C53.2902 736.185 50.5058 734.789 47.5309 733.974C44.5559 733.159 41.4491 732.94 38.3893 733.331C35.3295 733.722 32.3772 734.714 29.7024 736.25C19.8072 741.849 7.46942 770.008 4.33696 777.46H4.32951Z" fill="#2F2E41"/>
</svg>
