<svg width="529" height="824" viewBox="0 0 529 824" fill="none" xmlns="http://www.w3.org/2000/svg">
<g clip-path="url(#clip0_169_185)">
<path d="M186.604 240.622C176.808 192.731 207.69 145.967 255.581 136.171C303.472 126.375 350.237 157.256 360.033 205.147C367.978 243.987 349.164 282.082 316.225 300.321L358.398 373.982L224.83 470.337L212.869 368.001C212.869 368.001 235.75 333.51 240.227 304.97C213.65 294.228 192.779 270.811 186.604 240.622Z" fill="#ED9DA0"/>
<path d="M186.608 169.5L185.116 214.181L194.419 227.471" fill="#090814"/>
<path d="M238.454 390.439L233.138 365.187C233.138 365.187 227.241 326.096 249.417 304.872C249.417 304.872 204.296 317.301 206.091 353.87L94.9182 407.716L114.854 763.898C114.854 763.898 90.9311 785.163 125.486 799.782C125.486 799.782 295.603 840.982 395.281 814.402L421.861 807.756L445.784 814.402C445.784 814.402 472.365 794.466 465.72 769.214L477.681 673.524L498.946 398.413L453.758 374.49C453.758 374.49 449.771 363.858 436.481 363.858L368.7 326.645C368.7 326.645 336.21 308.8 317.236 300.135C315.97 299.557 314.915 301.23 315.97 302.137C325.755 310.546 333.244 326.913 292.945 350.567C292.945 350.567 274.007 379.743 277.495 390.407L238.454 390.439Z" fill="#D6D6E3"/>
<path d="M154.753 805.765H152.095V768.453L158.89 600.528C142 509.515 190.726 391.114 191.22 389.928L191.561 389.11H238.454V391.768H193.341C189.053 402.417 145.444 513.901 161.53 600.188L161.558 600.336L161.552 600.485L154.752 768.506L154.753 805.765Z" fill="#090814"/>
<path d="M304.906 628.336H245.657L152.067 597.769H124.717L94.9182 632.264L129.473 661.562L145.422 668.208C145.422 668.208 249.087 747.95 274.338 751.937C299.59 755.924 314.209 747.95 314.209 747.95L304.906 628.336Z" fill="#ED9DA0"/>
<path d="M181.306 515.368C185.71 515.368 189.28 511.798 189.28 507.394C189.28 502.99 185.71 499.42 181.306 499.42C176.902 499.42 173.331 502.99 173.331 507.394C173.331 511.798 176.902 515.368 181.306 515.368Z" fill="#090814"/>
<path d="M175.989 608.401C180.394 608.401 183.964 604.83 183.964 600.426C183.964 596.022 180.394 592.452 175.989 592.452C171.585 592.452 168.015 596.022 168.015 600.426C168.015 604.83 171.585 608.401 175.989 608.401Z" fill="#090814"/>
<path d="M290.287 514.039C294.691 514.039 298.261 510.469 298.261 506.065C298.261 501.661 294.691 498.091 290.287 498.091C285.883 498.091 282.312 501.661 282.312 506.065C282.312 510.469 285.883 514.039 290.287 514.039Z" fill="#090814"/>
<path d="M282.312 613.717C286.717 613.717 290.287 610.147 290.287 605.743C290.287 601.339 286.717 597.769 282.312 597.769C277.908 597.769 274.338 601.339 274.338 605.743C274.338 610.147 277.908 613.717 282.312 613.717Z" fill="#090814"/>
<path d="M318.197 418.348C322.601 418.348 326.171 414.778 326.171 410.374C326.171 405.97 322.601 402.4 318.197 402.4C313.792 402.4 310.222 405.97 310.222 410.374C310.222 414.778 313.792 418.348 318.197 418.348Z" fill="#090814"/>
<path d="M203.899 418.348C208.303 418.348 211.873 414.778 211.873 410.374C211.873 405.97 208.303 402.4 203.899 402.4C199.495 402.4 195.925 405.97 195.925 410.374C195.925 414.778 199.495 418.348 203.899 418.348Z" fill="#090814"/>
<path d="M396.373 571.489C385.443 551.08 356.592 545.243 331.932 558.451C317.839 565.998 308.192 578.136 304.529 590.959L174.39 656.234L129.473 661.563L94.9181 671.011L72.3245 746.621L150.738 757.253L259.719 725.357L233.396 688.234L329.267 637.148C341.971 641.205 357.42 639.902 371.514 632.354C396.173 619.148 407.303 591.897 396.373 571.489Z" fill="#ED9DA0"/>
<path d="M498.946 398.413C498.946 398.413 533.501 431.639 528.184 541.949L482.997 665.549C482.997 665.549 441.797 710.737 440.468 728.014C439.139 745.292 404.584 762.569 376.674 762.569C348.764 762.569 327.863 768.453 327.863 768.453L323.513 774.53L300.636 768.453L282.312 763.898L274.338 751.937L287.629 745.292L290.287 734.659C290.287 734.659 241.112 668.207 290.287 625.678L346.106 617.704L360.726 627.007L363.384 547.265L388.635 488.787" fill="#D6D6E3"/>
<path d="M94.9182 407.716C94.9182 407.716 65.6794 454.232 65.6794 476.826C65.6794 476.826 49.7309 495.433 51.06 516.697C51.06 516.697 35.1115 533.975 40.4277 552.581C40.4277 552.581 23.1502 563.213 23.1502 600.426C23.1502 600.426 -14.0628 613.717 5.87271 641.627L0 675.723C0 675.723 8.53078 705.42 8.53078 721.369C8.53078 737.317 28.4663 747.95 28.4663 747.95L56.3761 753.266C56.3761 753.266 73.6536 778.517 114.854 763.898C114.854 763.898 61.6923 757.253 82.9569 722.698C104.221 688.143 129.473 661.562 129.473 661.562C110.441 645.425 108.222 616.864 124.533 597.98L133.082 588.084L117.512 526" fill="#D6D6E3"/>
<path d="M330.827 173.068L344.522 236.356C344.522 236.356 351.952 205.909 359.534 213.823C367.115 221.737 355.286 189.753 355.286 189.753L330.827 173.068Z" fill="#090814"/>
<path d="M184.294 206.523L184.791 140.201L159.376 93.3988L168.68 64.16C168.68 64.16 173.996 45.5534 187.286 41.5663L204.564 20.3017C204.564 20.3017 212.538 10.9985 221.841 12.3275C231.144 13.6565 268.358 0.366165 268.358 0.366165C268.358 0.366165 284.97 -1.6274 295.603 3.68876L334.145 9.0049L340.79 11.663C340.79 11.663 352.751 30.2695 370.029 35.5856C370.029 35.5856 379.332 40.9018 381.99 52.8631L399.268 68.8116L401.926 98.0504C401.926 98.0504 403.255 107.354 400.597 113.999V129.947L388.635 148.554C388.635 148.554 391.293 155.199 372.687 171.147L367.371 220.322C367.371 220.322 366.827 211.139 361.783 219.718L356.738 207.031C356.738 207.031 332.816 164.502 291.616 159.186C250.416 153.87 205.057 155.592 184.294 206.523Z" fill="#737C4C"/>
<mask id="mask0_169_185" style="mask-type:luminance" maskUnits="userSpaceOnUse" x="243" y="60" width="20" height="16">
<path d="M243.601 60.3057H262.416V75.0425H243.601V60.3057Z" fill="white"/>
</mask>
<g mask="url(#mask0_169_185)">
<mask id="mask1_169_185" style="mask-type:luminance" maskUnits="userSpaceOnUse" x="243" y="60" width="20" height="15">
<path d="M262.189 60.7287C255.657 59.2798 244.774 66.2136 243.646 74.5936C251.867 76.528 261.382 67.7408 262.189 60.7287Z" fill="white"/>
</mask>
<g mask="url(#mask1_169_185)">
<mask id="mask2_169_185" style="mask-type:luminance" maskUnits="userSpaceOnUse" x="243" y="60" width="20" height="16">
<path d="M262.455 60.0059H243.074V75.3771H262.455V60.0059Z" fill="white"/>
</mask>
<g mask="url(#mask2_169_185)">
<mask id="mask3_169_185" style="mask-type:luminance" maskUnits="userSpaceOnUse" x="243" y="60" width="20" height="16">
<path d="M243.601 60.3062H262.306V75.043H243.601V60.3062Z" fill="white"/>
</mask>
<g mask="url(#mask3_169_185)">
<mask id="mask4_169_185" style="mask-type:luminance" maskUnits="userSpaceOnUse" x="243" y="60" width="20" height="15">
<path d="M262.189 60.7292C255.657 59.2803 244.774 66.214 243.646 74.5941C251.867 76.5285 261.382 67.7412 262.189 60.7292Z" fill="white"/>
</mask>
<g mask="url(#mask4_169_185)">
<path d="M436.68 -76.4595H109.282V250.939H436.68V-76.4595Z" fill="white"/>
</g>
</g>
</g>
</g>
</g>
<mask id="mask5_169_185" style="mask-type:luminance" maskUnits="userSpaceOnUse" x="277" y="70" width="11" height="16">
<path d="M277.158 70.3408H287.501V85.3909H277.158V70.3408Z" fill="white"/>
</mask>
<g mask="url(#mask5_169_185)">
<mask id="mask6_169_185" style="mask-type:luminance" maskUnits="userSpaceOnUse" x="277" y="70" width="11" height="16">
<path d="M287.264 72.09L281.299 70.3958L277.268 83.373L283.152 85.1482L287.264 72.09Z" fill="white"/>
</mask>
<g mask="url(#mask6_169_185)">
<mask id="mask7_169_185" style="mask-type:luminance" maskUnits="userSpaceOnUse" x="277" y="70" width="11" height="16">
<path d="M287.851 70.0303H277.158V85.4015H287.851V70.0303Z" fill="white"/>
</mask>
<g mask="url(#mask7_169_185)">
<mask id="mask8_169_185" style="mask-type:luminance" maskUnits="userSpaceOnUse" x="277" y="70" width="11" height="16">
<path d="M277.197 70.3408H287.285V85.2108H277.197V70.3408Z" fill="white"/>
</mask>
<g mask="url(#mask8_169_185)">
<mask id="mask9_169_185" style="mask-type:luminance" maskUnits="userSpaceOnUse" x="277" y="70" width="11" height="16">
<path d="M287.264 72.09L281.299 70.3958L277.268 83.373L283.152 85.1482L287.264 72.09Z" fill="white"/>
</mask>
<g mask="url(#mask9_169_185)">
<path d="M436.681 -76.46H109.282V250.939H436.681V-76.46Z" fill="white"/>
</g>
</g>
</g>
</g>
</g>
<mask id="mask10_169_185" style="mask-type:luminance" maskUnits="userSpaceOnUse" x="216" y="44" width="19" height="24">
<path d="M216.95 44H234.822V67.5189H216.95V44Z" fill="white"/>
</mask>
<g mask="url(#mask10_169_185)">
<mask id="mask11_169_185" style="mask-type:luminance" maskUnits="userSpaceOnUse" x="216" y="44" width="19" height="24">
<path d="M234.699 67.5003C235.587 57.9063 226.319 46.6155 217.044 44.2007C215.997 53.3874 225.272 65.806 234.699 67.5003Z" fill="white"/>
</mask>
<g mask="url(#mask11_169_185)">
<mask id="mask12_169_185" style="mask-type:luminance" maskUnits="userSpaceOnUse" x="216" y="43" width="20" height="26">
<path d="M235.054 43.9658H216.342V68.0251H235.054V43.9658Z" fill="white"/>
</mask>
<g mask="url(#mask12_169_185)">
<mask id="mask13_169_185" style="mask-type:luminance" maskUnits="userSpaceOnUse" x="216" y="44" width="19" height="24">
<path d="M216.95 44.0625H234.822V67.5187H216.95V44.0625Z" fill="white"/>
</mask>
<g mask="url(#mask13_169_185)">
<mask id="mask14_169_185" style="mask-type:luminance" maskUnits="userSpaceOnUse" x="216" y="44" width="19" height="24">
<path d="M234.699 67.5003C235.587 57.9063 226.319 46.6155 217.044 44.2007C215.997 53.3874 225.272 65.806 234.699 67.5003Z" fill="white"/>
</mask>
<g mask="url(#mask14_169_185)">
<path d="M436.68 -76.4604H109.282V250.938H436.68V-76.4604Z" fill="white"/>
</g>
</g>
</g>
</g>
</g>
<mask id="mask15_169_185" style="mask-type:luminance" maskUnits="userSpaceOnUse" x="195" y="65" width="40" height="11">
<path d="M195 65.9497H234.196V75.3557H195V65.9497Z" fill="white"/>
</mask>
<g mask="url(#mask15_169_185)">
<mask id="mask16_169_185" style="mask-type:luminance" maskUnits="userSpaceOnUse" x="195" y="66" width="39" height="10">
<path d="M195.201 71.4504C204.307 77.9769 225.912 75.5595 233.971 69.6752C226.56 64.5166 204.954 64.5166 195.201 71.4504Z" fill="white"/>
</mask>
<g mask="url(#mask16_169_185)">
<mask id="mask17_169_185" style="mask-type:luminance" maskUnits="userSpaceOnUse" x="194" y="65" width="41" height="11">
<path d="M234.386 65.3521H194.956V75.3767H234.386V65.3521Z" fill="white"/>
</mask>
<g mask="url(#mask17_169_185)">
<mask id="mask18_169_185" style="mask-type:luminance" maskUnits="userSpaceOnUse" x="195" y="65" width="40" height="11">
<path d="M195.06 65.95H234.128V75.3559H195.06V65.95Z" fill="white"/>
</mask>
<g mask="url(#mask18_169_185)">
<mask id="mask19_169_185" style="mask-type:luminance" maskUnits="userSpaceOnUse" x="195" y="66" width="39" height="10">
<path d="M195.201 71.4506C204.307 77.9771 225.912 75.5597 233.971 69.6754C226.56 64.5169 204.954 64.5169 195.201 71.4506Z" fill="white"/>
</mask>
<g mask="url(#mask19_169_185)">
<path d="M436.68 -76.46H109.282V250.939H436.68V-76.46Z" fill="white"/>
</g>
</g>
</g>
</g>
</g>
<mask id="mask20_169_185" style="mask-type:luminance" maskUnits="userSpaceOnUse" x="210" y="49" width="133" height="69">
<path d="M210.995 49.3306H343V118H210.995V49.3306Z" fill="white"/>
</mask>
<g mask="url(#mask20_169_185)">
<mask id="mask21_169_185" style="mask-type:luminance" maskUnits="userSpaceOnUse" x="211" y="49" width="132" height="69">
<path d="M336.677 88.8579C334.503 96.6766 331.999 102.075 329.665 105.464C326.603 109.983 323.619 111.03 321.925 111.03C320.471 111.03 319.588 110.061 319.588 107.646C319.588 101.441 325.553 95.7159 333.453 94.6691L332.088 88.6255C327.684 89.5183 323.833 91.2727 320.792 93.6692C313.464 93.8154 308.6 91.2074 304.029 84.3468L298.792 87.6492C304.358 95.0685 304.358 100.948 300.648 105.064C299.761 106.033 298.312 107.161 296.939 108.127L291.78 88.6177L285.815 90.312L289.164 102.963L279.369 109.735C278.001 110.703 276.707 111.022 275.981 110.622L281.938 90.312L275.973 88.6177L271.598 103.851L263.403 109.894C262.194 110.782 260.988 111.022 260.181 110.863L270.582 76.7682L264.698 74.9121L260.602 88.2705C257.579 90.0326 255.075 90.8941 252.326 91.0455C252.793 84.3755 250.593 78.4494 242.925 76.6873C237.756 84.6757 240.424 92.1263 245.682 95.4287C242.26 105.419 235.214 111.429 227.774 111.429C221.401 111.429 217.618 107.32 217.618 99.5796C217.618 88.0512 226.727 79.431 237.608 78.4572L239.464 78.2954L240.67 75.4733C243.886 68.0618 247.758 58.8725 240.184 51.5394L237.929 49.3647L233.499 54.0429L235.746 56.2097C239.85 60.1752 238.923 65.0048 235.746 72.5051C220.667 74.9799 211.16 85.9888 211.16 99.9007C211.16 110.622 216.725 117.634 227.447 117.634C239.271 117.634 248.105 108.56 251.24 97.1726C253.261 97.2118 255.803 96.6975 258.265 95.8699L254.535 108.041C252.6 114.327 255.422 117.227 259.853 117.227C262.03 117.227 264.45 116.501 266.946 114.567L269.862 112.27C270.183 115.288 272.229 117.222 275.406 117.222C277.581 117.222 280.325 116.334 282.659 114.64L290.739 108.949L293.054 117.702C298.698 115.04 302.403 112.144 304.904 109.563C307.78 106.545 310.341 102.796 309.161 97.0525C311.088 98.3056 313.291 98.953 315.834 99.2533C314.244 101.963 313.37 105.044 313.37 108.354C313.37 113.92 316.675 117.222 321.512 117.222C325.3 117.222 328.843 115.288 332.234 111.257L331.106 116.494L337.15 117.781L342.956 90.6122L336.677 88.8579Z" fill="white"/>
</mask>
<g mask="url(#mask21_169_185)">
<mask id="mask22_169_185" style="mask-type:luminance" maskUnits="userSpaceOnUse" x="210" y="49" width="134" height="70">
<path d="M343.321 49.3125H210.995V118.149H343.321V49.3125Z" fill="white"/>
</mask>
<g mask="url(#mask22_169_185)">
<mask id="mask23_169_185" style="mask-type:luminance" maskUnits="userSpaceOnUse" x="211" y="49" width="132" height="69">
<path d="M211.071 49.3467H343V117.875H211.071V49.3467Z" fill="white"/>
</mask>
<g mask="url(#mask23_169_185)">
<mask id="mask24_169_185" style="mask-type:luminance" maskUnits="userSpaceOnUse" x="211" y="49" width="132" height="69">
<path d="M336.677 88.8579C334.503 96.6766 331.999 102.075 329.665 105.464C326.603 109.983 323.619 111.03 321.925 111.03C320.471 111.03 319.588 110.061 319.588 107.646C319.588 101.441 325.553 95.7159 333.453 94.6691L332.088 88.6255C327.684 89.5183 323.833 91.2727 320.792 93.6692C313.464 93.8154 308.6 91.2074 304.029 84.3468L298.792 87.6492C304.358 95.0685 304.358 100.948 300.648 105.064C299.761 106.033 298.312 107.161 296.939 108.127L291.78 88.6177L285.815 90.312L289.164 102.963L279.369 109.735C278.001 110.703 276.707 111.022 275.981 110.622L281.938 90.312L275.973 88.6177L271.598 103.851L263.403 109.894C262.194 110.782 260.988 111.022 260.181 110.863L270.582 76.7682L264.698 74.9121L260.602 88.2705C257.579 90.0326 255.075 90.8941 252.326 91.0455C252.793 84.3755 250.593 78.4494 242.925 76.6873C237.756 84.6757 240.424 92.1263 245.682 95.4287C242.26 105.419 235.214 111.429 227.774 111.429C221.401 111.429 217.618 107.32 217.618 99.5796C217.618 88.0512 226.727 79.431 237.608 78.4572L239.464 78.2954L240.67 75.4733C243.886 68.0618 247.758 58.8725 240.184 51.5394L237.929 49.3647L233.499 54.0429L235.746 56.2097C239.85 60.1752 238.923 65.0048 235.746 72.5051C220.667 74.9799 211.16 85.9888 211.16 99.9007C211.16 110.622 216.725 117.634 227.447 117.634C239.271 117.634 248.105 108.56 251.24 97.1726C253.261 97.2118 255.803 96.6975 258.265 95.8699L254.535 108.041C252.6 114.327 255.422 117.227 259.853 117.227C262.03 117.227 264.45 116.501 266.946 114.567L269.862 112.27C270.183 115.288 272.229 117.222 275.406 117.222C277.581 117.222 280.325 116.334 282.659 114.64L290.739 108.949L293.054 117.702C298.698 115.04 302.403 112.144 304.904 109.563C307.78 106.545 310.341 102.796 309.161 97.0525C311.088 98.3056 313.291 98.953 315.834 99.2533C314.244 101.963 313.37 105.044 313.37 108.354C313.37 113.92 316.675 117.222 321.512 117.222C325.3 117.222 328.843 115.288 332.234 111.257L331.106 116.494L337.15 117.781L342.956 90.6122L336.677 88.8579Z" fill="white"/>
</mask>
<g mask="url(#mask24_169_185)">
<path d="M436.681 -76.46H109.282V250.939H436.681V-76.46Z" fill="white"/>
</g>
</g>
</g>
</g>
</g>
</g>
<defs>
<clipPath id="clip0_169_185">
<rect width="528.74" height="823.336" fill="white"/>
</clipPath>
</defs>
</svg>
