<svg width="554" height="1186" viewBox="0 0 554 1186" fill="none" xmlns="http://www.w3.org/2000/svg">
<path d="M296.664 1041.13C242.696 1011.05 209.099 969.975 196.806 919.052C187.669 881.245 190.3 838.699 204.601 792.6C215.202 758.611 231.095 726.506 251.696 697.468C360.991 542.766 370.854 441.961 359.885 384.637C347.857 321.783 308.778 295.679 308.384 295.424L310.063 292.83C310.465 293.093 350.576 319.803 362.893 383.932C369.993 420.903 366.654 463.058 352.964 509.23C335.926 566.692 302.703 630.626 254.217 699.257C233.804 728.029 218.054 759.84 207.549 793.517C184.095 869.127 180.778 972.994 298.167 1038.43L296.664 1041.13Z" fill="#2F2E41"/>
<path d="M198.098 754.675C155.552 730.958 156.736 693.372 165.222 666.017C168.984 653.952 174.626 642.555 181.94 632.248C220.228 578.051 223.689 542.842 219.85 522.851C215.679 501.142 202.302 492.229 202.168 492.141L203.846 489.548C204.441 489.934 218.464 499.277 222.881 522.269C228.632 552.204 215.705 589.809 184.46 634.034C177.337 644.076 171.842 655.178 168.177 666.932C160.031 693.195 158.871 729.266 199.604 751.973L198.098 754.675Z" fill="#2F2E41"/>
<path d="M389.517 411.189L388.01 408.485C428.743 385.777 427.584 349.705 419.437 323.444C415.771 311.69 410.274 300.586 403.149 290.544C371.904 246.319 358.977 208.715 364.728 178.779C369.143 155.789 383.168 146.444 383.763 146.058L385.452 148.652C385.316 148.741 371.871 157.771 367.739 179.484C363.943 199.465 367.439 234.641 405.671 288.758C412.984 299.066 418.625 310.462 422.387 322.527C430.88 349.882 432.064 387.473 389.517 411.189Z" fill="#2F2E41"/>
<mask id="mask0_169_3" style="mask-type:luminance" maskUnits="userSpaceOnUse" x="448" y="292" width="97" height="75">
<path d="M449 292H544.14V366.52H449V292Z" fill="white"/>
</mask>
<g mask="url(#mask0_169_3)">
<mask id="mask1_169_3" style="mask-type:luminance" maskUnits="userSpaceOnUse" x="449" y="293" width="94" height="73">
<path d="M542.991 294.138C509.962 286.812 454.927 321.874 449.224 364.249C490.794 374.031 538.912 329.596 542.991 294.138Z" fill="white"/>
</mask>
<g mask="url(#mask1_169_3)">
<mask id="mask2_169_3" style="mask-type:luminance" maskUnits="userSpaceOnUse" x="446" y="290" width="99" height="79">
<path d="M544.338 290.481H446.333V368.209H544.338V290.481Z" fill="white"/>
</mask>
<g mask="url(#mask2_169_3)">
<mask id="mask3_169_3" style="mask-type:luminance" maskUnits="userSpaceOnUse" x="448" y="292" width="96" height="75">
<path d="M449 292H543.585V366.52H449V292Z" fill="white"/>
</mask>
<g mask="url(#mask3_169_3)">
<mask id="mask4_169_3" style="mask-type:luminance" maskUnits="userSpaceOnUse" x="449" y="293" width="94" height="73">
<path d="M542.991 294.138C509.962 286.812 454.927 321.874 449.224 364.249C490.794 374.031 538.912 329.596 542.991 294.138Z" fill="white"/>
</mask>
<g mask="url(#mask4_169_3)">
<path d="M1425.34 -399.585H-230.215V1255.97H1425.34V-399.585Z" fill="#6C773D"/>
</g>
</g>
</g>
</g>
</g>
<mask id="mask5_169_3" style="mask-type:luminance" maskUnits="userSpaceOnUse" x="355" y="526" width="199" height="155">
<path d="M356 526H553.257V680.505H356V526Z" fill="white"/>
</mask>
<g mask="url(#mask5_169_3)">
<mask id="mask6_169_3" style="mask-type:luminance" maskUnits="userSpaceOnUse" x="355" y="535" width="169" height="130">
<path d="M524 536.751C464.823 523.625 366.217 586.444 356 662.367C430.48 679.893 516.691 600.281 524 536.751Z" fill="white"/>
</mask>
<g mask="url(#mask6_169_3)">
<mask id="mask7_169_3" style="mask-type:luminance" maskUnits="userSpaceOnUse" x="350" y="530" width="177" height="140">
<path d="M526.412 530.199H350.82V669.462H526.412V530.199Z" fill="white"/>
</mask>
<g mask="url(#mask7_169_3)">
<mask id="mask8_169_3" style="mask-type:luminance" maskUnits="userSpaceOnUse" x="355" y="532" width="171" height="135">
<path d="M355.598 532.92H525.064V666.436H355.598V532.92Z" fill="white"/>
</mask>
<g mask="url(#mask8_169_3)">
<mask id="mask9_169_3" style="mask-type:luminance" maskUnits="userSpaceOnUse" x="355" y="535" width="169" height="130">
<path d="M524 536.751C464.823 523.625 366.217 586.444 356 662.367C430.48 679.893 516.691 600.281 524 536.751Z" fill="white"/>
</mask>
<g mask="url(#mask9_169_3)">
<path d="M2104.89 -706.178H-861.336V2260.05H2104.89V-706.178Z" fill="#6C773D"/>
</g>
</g>
</g>
</g>
</g>
<mask id="mask10_169_3" style="mask-type:luminance" maskUnits="userSpaceOnUse" x="226" y="182" width="92" height="119">
<path d="M227 182H317.374V300.928H227V182Z" fill="white"/>
</mask>
<g mask="url(#mask10_169_3)">
<mask id="mask11_169_3" style="mask-type:luminance" maskUnits="userSpaceOnUse" x="228" y="183" width="91" height="118">
<path d="M317.754 300.835C322.242 252.322 275.378 195.227 228.475 183.016C223.181 229.471 270.085 292.268 317.754 300.835Z" fill="white"/>
</mask>
<g mask="url(#mask11_169_3)">
<mask id="mask12_169_3" style="mask-type:luminance" maskUnits="userSpaceOnUse" x="224" y="181" width="96" height="123">
<path d="M319.549 181.828H224.924V303.489H319.549V181.828Z" fill="white"/>
</mask>
<g mask="url(#mask12_169_3)">
<mask id="mask13_169_3" style="mask-type:luminance" maskUnits="userSpaceOnUse" x="227" y="182" width="92" height="119">
<path d="M228 182.317H318.374V300.928H228V182.317Z" fill="white"/>
</mask>
<g mask="url(#mask13_169_3)">
<mask id="mask14_169_3" style="mask-type:luminance" maskUnits="userSpaceOnUse" x="228" y="183" width="91" height="118">
<path d="M317.754 300.835C322.242 252.322 275.378 195.227 228.475 183.016C223.181 229.471 270.085 292.268 317.754 300.835Z" fill="white"/>
</mask>
<g mask="url(#mask14_169_3)">
<path d="M1339.11 -427.131H-316.446V1228.43H1339.11V-427.131Z" fill="#6C773D"/>
</g>
</g>
</g>
</g>
</g>
<mask id="mask15_169_3" style="mask-type:luminance" maskUnits="userSpaceOnUse" x="199" y="384" width="120" height="91">
<path d="M318.928 384V474.374H200V384H318.928Z" fill="white"/>
</mask>
<g mask="url(#mask15_169_3)">
<mask id="mask16_169_3" style="mask-type:luminance" maskUnits="userSpaceOnUse" x="200" y="384" width="118" height="91">
<path d="M200.093 473.754C248.606 478.242 305.701 431.378 317.912 384.475C271.457 379.181 208.66 426.085 200.093 473.754Z" fill="white"/>
</mask>
<g mask="url(#mask16_169_3)">
<mask id="mask17_169_3" style="mask-type:luminance" maskUnits="userSpaceOnUse" x="197" y="380" width="123" height="96">
<path d="M319.1 475.549V380.924H197.439V475.549H319.1Z" fill="white"/>
</mask>
<g mask="url(#mask17_169_3)">
<mask id="mask18_169_3" style="mask-type:luminance" maskUnits="userSpaceOnUse" x="200" y="384" width="119" height="91">
<path d="M318.611 384V474.374H200V384H318.611Z" fill="white"/>
</mask>
<g mask="url(#mask18_169_3)">
<mask id="mask19_169_3" style="mask-type:luminance" maskUnits="userSpaceOnUse" x="200" y="384" width="118" height="91">
<path d="M200.093 473.754C248.607 478.242 305.701 431.378 317.912 384.475C271.458 379.181 208.66 426.085 200.093 473.754Z" fill="white"/>
</mask>
<g mask="url(#mask19_169_3)">
<path d="M928.06 1495.11V-160.446H-727.499V1495.11H928.06Z" fill="#6C773D"/>
</g>
</g>
</g>
</g>
</g>
<mask id="mask20_169_3" style="mask-type:luminance" maskUnits="userSpaceOnUse" x="72" y="1095" width="120" height="91">
<path d="M191.928 1095V1185.37H72.9998V1095H191.928Z" fill="white"/>
</mask>
<g mask="url(#mask20_169_3)">
<mask id="mask21_169_3" style="mask-type:luminance" maskUnits="userSpaceOnUse" x="73" y="1095" width="118" height="91">
<path d="M73.0926 1184.75C121.606 1189.24 178.701 1142.38 190.912 1095.48C144.457 1090.18 81.66 1137.08 73.0926 1184.75Z" fill="white"/>
</mask>
<g mask="url(#mask21_169_3)">
<mask id="mask22_169_3" style="mask-type:luminance" maskUnits="userSpaceOnUse" x="70" y="1091" width="123" height="96">
<path d="M192.1 1186.55V1091.92H70.4392V1186.55H192.1Z" fill="white"/>
</mask>
<g mask="url(#mask22_169_3)">
<mask id="mask23_169_3" style="mask-type:luminance" maskUnits="userSpaceOnUse" x="73" y="1095" width="119" height="91">
<path d="M191.611 1095V1185.37H73V1095H191.611Z" fill="white"/>
</mask>
<g mask="url(#mask23_169_3)">
<mask id="mask24_169_3" style="mask-type:luminance" maskUnits="userSpaceOnUse" x="73" y="1095" width="118" height="91">
<path d="M73.0928 1184.75C121.607 1189.24 178.701 1142.38 190.912 1095.48C144.458 1090.18 81.6603 1137.08 73.0928 1184.75Z" fill="white"/>
</mask>
<g mask="url(#mask24_169_3)">
<path d="M801.059 2206.11V550.555H-854.499V2206.11H801.059Z" fill="#6C773D"/>
</g>
</g>
</g>
</g>
</g>
<mask id="mask25_169_3" style="mask-type:luminance" maskUnits="userSpaceOnUse" x="399" y="73" width="96" height="75">
<path d="M399.763 73.4536H494.903V147.973H399.763V73.4536Z" fill="white"/>
</mask>
<g mask="url(#mask25_169_3)">
<mask id="mask26_169_3" style="mask-type:luminance" maskUnits="userSpaceOnUse" x="399" y="74" width="95" height="74">
<path d="M493.755 75.5919C460.726 68.2653 405.691 103.327 399.988 145.703C441.558 155.484 489.676 111.05 493.755 75.5919Z" fill="white"/>
</mask>
<g mask="url(#mask26_169_3)">
<mask id="mask27_169_3" style="mask-type:luminance" maskUnits="userSpaceOnUse" x="397" y="71" width="99" height="79">
<path d="M495.101 71.9351H397.097V149.663H495.101V71.9351Z" fill="white"/>
</mask>
<g mask="url(#mask27_169_3)">
<mask id="mask28_169_3" style="mask-type:luminance" maskUnits="userSpaceOnUse" x="399" y="73" width="96" height="75">
<path d="M399.764 73.4536H494.349V147.973H399.764V73.4536Z" fill="white"/>
</mask>
<g mask="url(#mask28_169_3)">
<mask id="mask29_169_3" style="mask-type:luminance" maskUnits="userSpaceOnUse" x="399" y="74" width="95" height="74">
<path d="M493.755 75.5919C460.726 68.2653 405.691 103.327 399.988 145.703C441.558 155.484 489.676 111.05 493.755 75.5919Z" fill="white"/>
</mask>
<g mask="url(#mask29_169_3)">
<path d="M1376.11 -618.131H-279.451V1037.43H1376.11V-618.131Z" fill="#6C773D"/>
</g>
</g>
</g>
</g>
</g>
<mask id="mask30_169_3" style="mask-type:luminance" maskUnits="userSpaceOnUse" x="313" y="0" width="92" height="119">
<path d="M313.994 0H404.368V118.928H313.994V0Z" fill="white"/>
</mask>
<g mask="url(#mask30_169_3)">
<mask id="mask31_169_3" style="mask-type:luminance" maskUnits="userSpaceOnUse" x="314" y="1" width="91" height="118">
<path d="M403.748 118.835C408.236 70.3215 361.373 13.2271 314.469 1.01611C309.176 47.4705 356.079 110.268 403.748 118.835Z" fill="white"/>
</mask>
<g mask="url(#mask31_169_3)">
<mask id="mask32_169_3" style="mask-type:luminance" maskUnits="userSpaceOnUse" x="310" y="-1" width="96" height="123">
<path d="M405.543 -0.171875H310.918V121.489H405.543V-0.171875Z" fill="white"/>
</mask>
<g mask="url(#mask32_169_3)">
<mask id="mask33_169_3" style="mask-type:luminance" maskUnits="userSpaceOnUse" x="313" y="0" width="92" height="119">
<path d="M313.994 0.316895H404.368V118.928H313.994V0.316895Z" fill="white"/>
</mask>
<g mask="url(#mask33_169_3)">
<mask id="mask34_169_3" style="mask-type:luminance" maskUnits="userSpaceOnUse" x="314" y="1" width="91" height="118">
<path d="M403.748 118.835C408.236 70.3215 361.373 13.2271 314.469 1.01611C309.176 47.4705 356.079 110.268 403.748 118.835Z" fill="white"/>
</mask>
<g mask="url(#mask34_169_3)">
<path d="M1425.11 -609.131H-230.451V1046.43H1425.11V-609.131Z" fill="#6C773D"/>
</g>
</g>
</g>
</g>
</g>
<mask id="mask35_169_3" style="mask-type:luminance" maskUnits="userSpaceOnUse" x="202" y="110" width="200" height="49">
<path d="M203 110.994H401.2V158.557H203V110.994Z" fill="white"/>
</mask>
<g mask="url(#mask35_169_3)">
<mask id="mask36_169_3" style="mask-type:luminance" maskUnits="userSpaceOnUse" x="204" y="111" width="197" height="48">
<path d="M204.016 138.809C250.061 171.811 359.313 159.587 400.065 129.832C362.587 103.747 253.335 103.747 204.016 138.809Z" fill="white"/>
</mask>
<g mask="url(#mask36_169_3)">
<mask id="mask37_169_3" style="mask-type:luminance" maskUnits="userSpaceOnUse" x="202" y="107" width="201" height="52">
<path d="M402.163 107.972H202.775V158.664H402.163V107.972Z" fill="white"/>
</mask>
<g mask="url(#mask37_169_3)">
<mask id="mask38_169_3" style="mask-type:luminance" maskUnits="userSpaceOnUse" x="203" y="110" width="198" height="49">
<path d="M203.303 110.995H400.857V158.558H203.303V110.995Z" fill="white"/>
</mask>
<g mask="url(#mask38_169_3)">
<mask id="mask39_169_3" style="mask-type:luminance" maskUnits="userSpaceOnUse" x="204" y="111" width="197" height="48">
<path d="M204.016 138.81C250.061 171.813 359.313 159.589 400.065 129.833C362.587 103.748 253.335 103.748 204.016 138.81Z" fill="white"/>
</mask>
<g mask="url(#mask39_169_3)">
<path d="M1425.11 -609.13H-230.452V1046.43H1425.11V-609.13Z" fill="#6C773D"/>
</g>
</g>
</g>
</g>
</g>
<mask id="mask40_169_3" style="mask-type:luminance" maskUnits="userSpaceOnUse" x="0" y="765" width="119" height="91">
<path d="M118.928 765V855.374H5.51362e-05V765H118.928Z" fill="white"/>
</mask>
<g mask="url(#mask40_169_3)">
<mask id="mask41_169_3" style="mask-type:luminance" maskUnits="userSpaceOnUse" x="0" y="765" width="118" height="91">
<path d="M0.0928281 854.754C48.6066 859.242 105.701 812.378 117.912 765.475C71.4576 760.181 8.66029 807.085 0.0928281 854.754Z" fill="white"/>
</mask>
<g mask="url(#mask41_169_3)">
<mask id="mask42_169_3" style="mask-type:luminance" maskUnits="userSpaceOnUse" x="-3" y="761" width="123" height="96">
<path d="M119.1 856.549V761.924H-2.56056V856.549H119.1Z" fill="white"/>
</mask>
<g mask="url(#mask42_169_3)">
<mask id="mask43_169_3" style="mask-type:luminance" maskUnits="userSpaceOnUse" x="0" y="765" width="119" height="91">
<path d="M118.611 765V855.374H0.000229375V765H118.611Z" fill="white"/>
</mask>
<g mask="url(#mask43_169_3)">
<mask id="mask44_169_3" style="mask-type:luminance" maskUnits="userSpaceOnUse" x="0" y="765" width="118" height="91">
<path d="M0.0930722 854.754C48.6068 859.242 105.701 812.378 117.912 765.475C71.4578 760.181 8.66054 807.085 0.0930722 854.754Z" fill="white"/>
</mask>
<g mask="url(#mask44_169_3)">
<path d="M728.06 1876.11V220.554H-927.499V1876.11H728.06Z" fill="#6C773D"/>
</g>
</g>
</g>
</g>
</g>
</svg>
